<svg version="1.1" viewBox="0.0 0.0 960.0 540.0" fill="none" stroke="none" stroke-linecap="square" stroke-miterlimit="10" xmlns:xlink="http://www.w3.org/1999/xlink" xmlns="http://www.w3.org/2000/svg"><clipPath id="p.0"><path d="m0 0l960.0 0l0 540.0l-960.0 0l0 -540.0z" clip-rule="nonzero"/></clipPath><g clip-path="url(#p.0)"><path fill="#ffffff" fill-opacity="0.0" d="m0 0l960.0 0l0 540.0l-960.0 0z" fill-rule="evenodd"/><path fill="#e69138" d="m272.80573 263.2167c-4.110779 42.276672 -41.20398 74.084656 -82.653015 72.13983c-2.9259796 32.625824 3.3334808 63.693176 15.170761 91.45172c49.0876 -3.131073 96.780045 -28.232544 127.619125 -71.736664c40.7381 -57.468414 40.964294 -130.7429 7.6329956 -187.45653c-18.96991 24.480652 -43.855804 44.76764 -73.134766 58.7126c3.8792114 11.626602 6.459137 23.946136 5.3648987 36.889038z" fill-rule="evenodd"/><path stroke="#ffffff" stroke-width="1.0" stroke-miterlimit="8.0" stroke-linecap="butt" d="m272.80573 263.2167c-4.110779 42.276672 -41.20398 74.084656 -82.653015 72.13983c-2.9259796 32.625824 3.3334808 63.693176 15.170761 91.45172c49.0876 -3.131073 96.780045 -28.232544 127.619125 -71.736664c40.7381 -57.468414 40.964294 -130.7429 7.6329956 -187.45653c-18.96991 24.480652 -43.855804 44.76764 -73.134766 58.7126c3.8792114 11.626602 6.459137 23.946136 5.3648987 36.889038z" fill-rule="evenodd"/><path fill="#2283b6" d="m180.09163 334.86365c-41.28224 -6.669861 -70.356766 -44.22534 -66.609566 -85.949875c1.099617 -12.938217 5.1095886 -25.427216 11.425041 -35.475006c-26.705307 -18.123688 -55.986656 -29.19728 -86.38887 -32.996185c-36.46268 74.21123 -14.608088 166.36107 54.695454 215.4883c31.159729 22.088196 66.86667 32.068237 101.769714 31.79535c-11.971848 -28.659576 -16.913223 -60.404724 -14.891769 -92.86258z" fill-rule="evenodd"/><path stroke="#ffffff" stroke-width="1.0" stroke-miterlimit="8.0" stroke-linecap="butt" d="m180.09163 334.86365c-41.28224 -6.669861 -70.356766 -44.22534 -66.609566 -85.949875c1.099617 -12.938217 5.1095886 -25.427216 11.425041 -35.475006c-26.705307 -18.123688 -55.986656 -29.19728 -86.38887 -32.996185c-36.46268 74.21123 -14.608088 166.36107 54.695454 215.4883c31.159729 22.088196 66.86667 32.068237 101.769714 31.79535c-11.971848 -28.659576 -16.913223 -60.404724 -14.891769 -92.86258z" fill-rule="evenodd"/><path fill="#6fab33" d="m52.919342 156.45425c-3.433281 4.8432465 -6.866562 9.686493 -9.762169 14.910889c30.5933 4.7069855 60.82316 15.624802 88.08834 34.143692c15.952896 -20.225128 41.358643 -32.13231 69.263565 -29.331024c27.367249 2.4201508 50.487244 18.809189 63.358414 41.67862c29.307617 -13.9925995 53.307587 -34.173294 71.39316 -58.54654c-11.396332 -16.97261 -25.237701 -31.635658 -42.980927 -44.213303c-77.425064 -54.88426 -184.4279 -36.13433 -239.36038 41.357666z" fill-rule="evenodd"/><path stroke="#ffffff" stroke-width="1.0" stroke-miterlimit="8.0" stroke-linecap="butt" d="m52.919342 156.45425c-3.433281 4.8432465 -6.866562 9.686493 -9.762169 14.910889c30.5933 4.7069855 60.82316 15.624802 88.08834 34.143692c15.952896 -20.225128 41.358643 -32.13231 69.263565 -29.331024c27.367249 2.4201508 50.487244 18.809189 63.358414 41.67862c29.307617 -13.9925995 53.307587 -34.173294 71.39316 -58.54654c-11.396332 -16.97261 -25.237701 -31.635658 -42.980927 -44.213303c-77.425064 -54.88426 -184.4279 -36.13433 -239.36038 41.357666z" fill-rule="evenodd"/><path fill="#000000" fill-opacity="0.0" d="m397.08136 131.01575l554.92914 0l0 213.32285l-554.92914 0z" fill-rule="evenodd"/><path fill="#666666" d="m485.12823 291.2095q-5.125 1.28125 -13.53125 2.71875q-8.390625 1.453125 -19.4375 1.453125q-9.59375 0 -16.15625 -2.796875q-6.5625 -2.8125 -10.5625 -7.921875q-4.0 -5.125 -5.765625 -12.078125q-1.75 -6.96875 -1.75 -15.453125l0 -46.718765l14.875 0l0 43.515625q0 15.20314 4.796875 21.76564q4.796875 6.5625 16.171875 6.5625q2.390625 0 4.953125 -0.15625q2.5625 -0.171875 4.796875 -0.40625q2.25 -0.234375 4.078125 -0.46875q1.84375 -0.25 2.640625 -0.5625l0 -70.250015l14.890625 0l0 80.79689zm100.6369 2.40625q-2.71875 -7.203125 -5.125 -14.15625q-2.40625 -6.96875 -4.953125 -14.15625l-50.25 0l-10.078125 28.3125l-16.15622 0q6.40625 -17.59375 12.0 -32.546875q5.5937195 -14.968765 10.9530945 -28.406265q5.359375 -13.453125 10.640625 -25.6875q5.28125 -12.234375 11.046875 -24.234375l14.234375 0q5.765625 12.0 11.046875 24.234375q5.28125 12.234375 10.640625 25.6875q5.359375 13.4375 10.953125 28.406265q5.609375 14.953125 12.0 32.546875l-16.953125 0zm-14.5625 -41.125015q-5.125 -13.921875 -10.171875 -26.953125q-5.03125 -13.046875 -10.46875 -25.046875q-5.59375 12.0 -10.640625 25.046875q-5.046875 13.03125 -10.0 26.953125l41.28125 0zm86.24573 43.531265q-10.890625 0 -18.890625 -3.359375q-8.0 -3.359375 -13.125 -9.203125q-5.109375 -5.84375 -7.59375 -13.84375q-2.484375 -8.0 -2.484375 -17.281265l0 -69.59375l15.53125 0l0 67.828125q0 16.64064 7.359375 24.17189q7.359375 7.515625 19.203125 7.515625q5.90625 0 10.78125 -1.84375q4.890625 -1.84375 8.40625 -5.671875q3.53125 -3.84375 5.4375 -9.84375q1.921875 -6.0 1.921875 -14.32814l0 -67.828125l15.53125 0l0 69.59375q0 9.281265 -2.484375 17.281265q-2.484375 8.0 -7.6875 13.84375q-5.1875 5.84375 -13.109375 9.203125q-7.921875 3.359375 -18.796875 3.359375zm142.87689 -113.281265l0 13.4375l-34.890625 0l0 97.437515l-15.515625 0l0 -97.437515l-34.875 0l0 -13.4375l85.28125 0zm86.07196 0l15.53125 0l0 110.875015l-15.53125 0l0 -51.20314l-54.234375 0l0 51.20314l-15.515625 0l0 -110.875015l15.515625 0l0 46.234375l54.234375 0l0 -46.234375z" fill-rule="nonzero"/><path fill="#000000" fill-opacity="0.0" d="m419.72702 300.00525l476.37796 0l0 101.79529l-476.37796 0z" fill-rule="evenodd"/><path fill="#595959" d="m463.19855 356.67587q0 -4.6875 1.359375 -8.1875q1.359375 -3.515625 3.59375 -5.828125q2.25 -2.3125 5.171875 -3.46875q2.9375 -1.15625 5.984375 -1.15625q7.140625 0 10.953125 4.453125q3.8125 4.453125 3.8125 13.578125q0 0.40625 0 1.046875q0 0.640625 -0.078125 1.1875l-24.203125 0q0.40625 5.515625 3.1875 8.375q2.796875 2.84375 8.71875 2.84375q3.328125 0 5.609375 -0.578125q2.28125 -0.578125 3.4375 -1.109375l0.875 5.296875q-1.15625 0.609375 -4.046875 1.28125q-2.890625 0.6875 -6.5625 0.6875q-4.625 0 -8.0 -1.390625q-3.359375 -1.390625 -5.53125 -3.84375q-2.171875 -2.453125 -3.234375 -5.8125q-1.046875 -3.359375 -1.046875 -7.375zm24.28125 -3.46875q0.0625 -4.28125 -2.15625 -7.03125q-2.203125 -2.765625 -6.078125 -2.765625q-2.171875 0 -3.84375 0.859375q-1.65625 0.84375 -2.8125 2.203125q-1.15625 1.359375 -1.8125 3.125q-0.640625 1.765625 -0.84375 3.609375l17.546875 0zm36.855774 21.078125q-0.75 -1.5 -1.84375 -3.328125q-1.09375 -1.84375 -2.390625 -3.78125q-1.28125 -1.9375 -2.640625 -3.84375q-1.359375 -1.90625 -2.65625 -3.59375q-1.28125 1.6875 -2.640625 3.640625q-1.359375 1.9375 -2.625 3.875q-1.25 1.9375 -2.34375 3.78125q-1.09375 1.828125 -1.84375 3.25l-6.515625 0q2.375 -4.625 5.671875 -9.421875q3.296875 -4.796875 6.5625 -9.140625l-11.703125 -16.796875l7.140625 0l8.4375 12.375l8.5 -12.375l6.734375 0l-11.421875 16.390625q3.265625 4.421875 6.6875 9.359375q3.4375 4.921875 5.828125 9.609375l-6.9375 0zm38.13867 -17.609375q0 -6.1875 -3.0625 -9.515625q-3.046875 -3.34375 -8.15625 -3.34375q-2.859375 0 -4.453125 0.203125q-1.59375 0.203125 -2.546875 0.484375l0 22.296875q1.15625 0.953125 3.328125 1.84375q2.171875 0.875 4.765625 0.875q2.71875 0 4.65625 -0.984375q1.9375 -0.984375 3.15625 -2.71875q1.234375 -1.734375 1.765625 -4.078125q0.546875 -2.34375 0.546875 -5.0625zm6.59375 0q0 4.015625 -1.0625 7.421875q-1.046875 3.390625 -3.09375 5.84375q-2.03125 2.4375 -4.984375 3.796875q-2.953125 1.359375 -6.765625 1.359375q-3.0625 0 -5.40625 -0.8125q-2.34375 -0.8125 -3.5 -1.5625l0 14.140625l-6.328125 0l0 -46.84375q2.25 -0.546875 5.609375 -1.1875q3.375 -0.65625 7.796875 -0.65625q4.078125 0 7.328125 1.296875q3.265625 1.28125 5.578125 3.671875q2.3125 2.375 3.5625 5.8125q1.265625 3.4375 1.265625 7.71875zm6.942688 0q0 -4.6875 1.359375 -8.1875q1.359375 -3.515625 3.59375 -5.828125q2.25 -2.3125 5.171875 -3.46875q2.9375 -1.15625 5.984375 -1.15625q7.140625 0 10.953125 4.453125q3.8125 4.453125 3.8125 13.578125q0 0.40625 0 1.046875q0 0.640625 -0.078125 1.1875l-24.203125 0q0.40625 5.515625 3.1875 8.375q2.796875 2.84375 8.71875 2.84375q3.328125 0 5.609375 -0.578125q2.28125 -0.578125 3.4375 -1.109375l0.875 5.296875q-1.15625 0.609375 -4.046875 1.28125q-2.890625 0.6875 -6.5625 0.6875q-4.625 0 -8.0 -1.390625q-3.359375 -1.390625 -5.53125 -3.84375q-2.171875 -2.453125 -3.234375 -5.8125q-1.046875 -3.359375 -1.046875 -7.375zm24.28125 -3.46875q0.0625 -4.28125 -2.15625 -7.03125q-2.203125 -2.765625 -6.078125 -2.765625q-2.171875 0 -3.84375 0.859375q-1.65625 0.84375 -2.8125 2.203125q-1.15625 1.359375 -1.8125 3.125q-0.640625 1.765625 -0.84375 3.609375l17.546875 0zm28.762024 -15.03125q0.8125 0 1.859375 0.109375q1.0625 0.09375 2.078125 0.265625q1.015625 0.171875 1.859375 0.34375q0.859375 0.171875 1.265625 0.296875l-1.078125 5.515625q-0.75 -0.28125 -2.484375 -0.640625q-1.734375 -0.375 -4.453125 -0.375q-1.765625 0 -3.5 0.375q-1.734375 0.359375 -2.28125 0.5l0 29.71875l-6.328125 0l0 -33.859375q2.25 -0.828125 5.578125 -1.53125q3.328125 -0.71875 7.484375 -0.71875zm19.513672 36.109375l-6.328125 0l0 -35.359375l6.328125 0l0 35.359375zm-3.203125 -41.75q-1.6875 0 -2.890625 -1.125q-1.1875 -1.125 -1.1875 -3.03125q0 -1.890625 1.1875 -3.015625q1.203125 -1.125 2.890625 -1.125q1.703125 0 2.890625 1.125q1.1875 1.125 1.1875 3.015625q0 1.90625 -1.1875 3.03125q-1.1875 1.125 -2.890625 1.125zm14.079041 7.40625q2.171875 -0.546875 5.734375 -1.15625q3.578125 -0.609375 8.28125 -0.609375q3.390625 0 5.703125 0.921875q2.3125 0.921875 3.875 2.6875q0.484375 -0.34375 1.5 -0.953125q1.015625 -0.609375 2.515625 -1.1875q1.5 -0.578125 3.328125 -1.015625q1.84375 -0.453125 3.953125 -0.453125q4.078125 0 6.65625 1.1875q2.59375 1.1875 4.046875 3.375q1.46875 2.171875 1.96875 5.171875q0.515625 2.984375 0.515625 6.515625l0 19.859375l-6.328125 0l0 -18.5q0 -3.125 -0.3125 -5.359375q-0.296875 -2.25 -1.15625 -3.75q-0.84375 -1.5 -2.3125 -2.203125q-1.453125 -0.71875 -3.765625 -0.71875q-3.1875 0 -5.265625 0.859375q-2.078125 0.84375 -2.828125 1.515625q0.546875 1.765625 0.8125 3.875q0.28125 2.109375 0.28125 4.421875l0 19.859375l-6.328125 0l0 -18.5q0 -3.125 -0.34375 -5.359375q-0.328125 -2.25 -1.1875 -3.75q-0.84375 -1.5 -2.3125 -2.203125q-1.453125 -0.71875 -3.703125 -0.71875q-0.953125 0 -2.046875 0.078125q-1.078125 0.0625 -2.0625 0.171875q-0.984375 0.09375 -1.8125 0.234375q-0.8125 0.125 -1.078125 0.1875l0 29.859375l-6.328125 0l0 -34.34375zm56.579285 16.734375q0 -4.6875 1.359375 -8.1875q1.359375 -3.515625 3.59375 -5.828125q2.25 -2.3125 5.171875 -3.46875q2.9375 -1.15625 5.984375 -1.15625q7.140625 0 10.953125 4.453125q3.8125 4.453125 3.8125 13.578125q0 0.40625 0 1.046875q0 0.640625 -0.078125 1.1875l-24.203125 0q0.40625 5.515625 3.1875 8.375q2.796875 2.84375 8.71875 2.84375q3.328125 0 5.609375 -0.578125q2.28125 -0.578125 3.4375 -1.109375l0.875 5.296875q-1.15625 0.609375 -4.046875 1.28125q-2.890625 0.6875 -6.5625 0.6875q-4.625 0 -8.0 -1.390625q-3.359375 -1.390625 -5.53125 -3.84375q-2.171875 -2.453125 -3.234375 -5.8125q-1.046875 -3.359375 -1.046875 -7.375zm24.28125 -3.46875q0.0625 -4.28125 -2.15625 -7.03125q-2.203125 -2.765625 -6.078125 -2.765625q-2.171875 0 -3.84375 0.859375q-1.65625 0.84375 -2.8125 2.203125q-1.15625 1.359375 -1.8125 3.125q-0.640625 1.765625 -0.84375 3.609375l17.546875 0zm15.699585 -13.265625q2.171875 -0.546875 5.78125 -1.15625q3.609375 -0.609375 8.296875 -0.609375q4.21875 0 7.0 1.1875q2.796875 1.1875 4.453125 3.34375q1.671875 2.140625 2.34375 5.140625q0.6875 2.984375 0.6875 6.578125l0 19.859375l-6.328125 0l0 -18.5q0 -3.265625 -0.4375 -5.578125q-0.4375 -2.3125 -1.46875 -3.734375q-1.015625 -1.421875 -2.71875 -2.0625q-1.6875 -0.65625 -4.203125 -0.65625q-1.03125 0 -2.125 0.078125q-1.078125 0.0625 -2.0625 0.171875q-0.984375 0.09375 -1.765625 0.234375q-0.78125 0.125 -1.125 0.1875l0 29.859375l-6.328125 0l0 -34.34375zm44.95392 -1.015625l13.390625 0l0 5.296875l-13.390625 0l0 16.328125q0 2.65625 0.40625 4.390625q0.40625 1.734375 1.21875 2.71875q0.8125 0.984375 2.03125 1.390625q1.234375 0.40625 2.875 0.40625q2.84375 0 4.578125 -0.640625q1.734375 -0.65625 2.421875 -0.921875l1.21875 5.234375q-0.953125 0.46875 -3.328125 1.1875q-2.375 0.71875 -5.4375 0.71875q-3.609375 0 -5.953125 -0.921875q-2.34375 -0.921875 -3.78125 -2.75q-1.421875 -1.84375 -2.0 -4.515625q-0.578125 -2.6875 -0.578125 -6.234375l0 -31.546875l6.328125 -1.09375l0 10.953125zm51.68091 17.671875q0 4.21875 -1.234375 7.625q-1.21875 3.40625 -3.4375 5.859375q-2.203125 2.4375 -5.265625 3.765625q-3.0625 1.328125 -6.65625 1.328125q-3.609375 0 -6.671875 -1.328125q-3.046875 -1.328125 -5.265625 -3.765625q-2.203125 -2.453125 -3.4375 -5.859375q-1.21875 -3.40625 -1.21875 -7.625q0 -4.140625 1.21875 -7.578125q1.234375 -3.4375 3.4375 -5.875q2.21875 -2.453125 5.265625 -3.78125q3.0625 -1.328125 6.671875 -1.328125q3.59375 0 6.65625 1.328125q3.0625 1.328125 5.265625 3.78125q2.21875 2.4375 3.4375 5.875q1.234375 3.4375 1.234375 7.578125zm-6.59375 0q0 -5.96875 -2.6875 -9.46875q-2.6875 -3.515625 -7.3125 -3.515625q-4.625 0 -7.3125 3.515625q-2.6875 3.5 -2.6875 9.46875q0 5.984375 2.6875 9.5q2.6875 3.5 7.3125 3.5q4.625 0 7.3125 -3.5q2.6875 -3.515625 2.6875 -9.5z" fill-rule="nonzero"/><path fill="#ffffff" d="m110.24885 267.6538l0 0c0 -57.394135 46.25921 -103.921265 103.32284 -103.921265l0 0c27.402908 0 53.68347 10.948822 73.06027 30.437836c19.3768 19.489014 30.262543 45.9218 30.262543 73.48343l0 0c0 57.394135 -46.259186 103.921265 -103.322815 103.921265l0 0c-57.06363 0 -103.32284 -46.52713 -103.32284 -103.921265z" fill-rule="evenodd"/></g></svg>